<mxfile host="app.diagrams.net" agent="Mozilla/5.0 (Windows NT 10.0; Win64; x64; rv:137.0) Gecko/20100101 Firefox/137.0" version="26.2.13">
  <diagram name="Страница — 1" id="KvYpOLz_0j4Ad2wqYFwn">
    <mxGraphModel dx="3728" dy="649" grid="1" gridSize="10" guides="1" tooltips="1" connect="1" arrows="1" fold="1" page="1" pageScale="1" pageWidth="2339" pageHeight="3300" math="0" shadow="0">
      <root>
        <mxCell id="0" />
        <mxCell id="1" parent="0" />
        <mxCell id="Sc-RNGFK0KB6IZEStPiU-46" value="" style="endArrow=none;html=1;rounded=0;exitX=0.5;exitY=0;exitDx=0;exitDy=0;" edge="1" parent="1" source="Sc-RNGFK0KB6IZEStPiU-47" target="Sc-RNGFK0KB6IZEStPiU-7">
          <mxGeometry width="50" height="50" relative="1" as="geometry">
            <mxPoint x="190" y="440" as="sourcePoint" />
            <mxPoint x="360" y="400" as="targetPoint" />
          </mxGeometry>
        </mxCell>
        <mxCell id="Sc-RNGFK0KB6IZEStPiU-26" value="AuditLog" style="swimlane;fontStyle=0;childLayout=stackLayout;horizontal=1;startSize=30;horizontalStack=0;resizeParent=1;resizeParentMax=0;resizeLast=0;collapsible=1;marginBottom=0;whiteSpace=wrap;html=1;" vertex="1" parent="1">
          <mxGeometry x="260" y="545" width="140" height="120" as="geometry" />
        </mxCell>
        <mxCell id="Sc-RNGFK0KB6IZEStPiU-27" value="user" style="text;strokeColor=none;fillColor=none;align=left;verticalAlign=middle;spacingLeft=4;spacingRight=4;overflow=hidden;points=[[0,0.5],[1,0.5]];portConstraint=eastwest;rotatable=0;whiteSpace=wrap;html=1;" vertex="1" parent="Sc-RNGFK0KB6IZEStPiU-26">
          <mxGeometry y="30" width="140" height="30" as="geometry" />
        </mxCell>
        <mxCell id="Sc-RNGFK0KB6IZEStPiU-28" value="action" style="text;strokeColor=none;fillColor=none;align=left;verticalAlign=middle;spacingLeft=4;spacingRight=4;overflow=hidden;points=[[0,0.5],[1,0.5]];portConstraint=eastwest;rotatable=0;whiteSpace=wrap;html=1;" vertex="1" parent="Sc-RNGFK0KB6IZEStPiU-26">
          <mxGeometry y="60" width="140" height="30" as="geometry" />
        </mxCell>
        <mxCell id="Sc-RNGFK0KB6IZEStPiU-29" value="datetime" style="text;strokeColor=none;fillColor=none;align=left;verticalAlign=middle;spacingLeft=4;spacingRight=4;overflow=hidden;points=[[0,0.5],[1,0.5]];portConstraint=eastwest;rotatable=0;whiteSpace=wrap;html=1;" vertex="1" parent="Sc-RNGFK0KB6IZEStPiU-26">
          <mxGeometry y="90" width="140" height="30" as="geometry" />
        </mxCell>
        <mxCell id="Sc-RNGFK0KB6IZEStPiU-1" value="User" style="swimlane;fontStyle=0;childLayout=stackLayout;horizontal=1;startSize=30;horizontalStack=0;resizeParent=1;resizeParentMax=0;resizeLast=0;collapsible=1;marginBottom=0;whiteSpace=wrap;html=1;" vertex="1" parent="1">
          <mxGeometry x="260" y="130" width="140" height="210" as="geometry">
            <mxRectangle x="370" y="140" width="60" height="30" as="alternateBounds" />
          </mxGeometry>
        </mxCell>
        <mxCell id="Sc-RNGFK0KB6IZEStPiU-2" value="full_name" style="text;strokeColor=none;fillColor=none;align=left;verticalAlign=middle;spacingLeft=4;spacingRight=4;overflow=hidden;points=[[0,0.5],[1,0.5]];portConstraint=eastwest;rotatable=0;whiteSpace=wrap;html=1;" vertex="1" parent="Sc-RNGFK0KB6IZEStPiU-1">
          <mxGeometry y="30" width="140" height="30" as="geometry" />
        </mxCell>
        <mxCell id="Sc-RNGFK0KB6IZEStPiU-3" value="login" style="text;strokeColor=none;fillColor=none;align=left;verticalAlign=middle;spacingLeft=4;spacingRight=4;overflow=hidden;points=[[0,0.5],[1,0.5]];portConstraint=eastwest;rotatable=0;whiteSpace=wrap;html=1;" vertex="1" parent="Sc-RNGFK0KB6IZEStPiU-1">
          <mxGeometry y="60" width="140" height="30" as="geometry" />
        </mxCell>
        <mxCell id="Sc-RNGFK0KB6IZEStPiU-5" value="password_hash" style="text;strokeColor=none;fillColor=none;align=left;verticalAlign=middle;spacingLeft=4;spacingRight=4;overflow=hidden;points=[[0,0.5],[1,0.5]];portConstraint=eastwest;rotatable=0;whiteSpace=wrap;html=1;" vertex="1" parent="Sc-RNGFK0KB6IZEStPiU-1">
          <mxGeometry y="90" width="140" height="30" as="geometry" />
        </mxCell>
        <mxCell id="Sc-RNGFK0KB6IZEStPiU-6" value="role" style="text;strokeColor=none;fillColor=none;align=left;verticalAlign=middle;spacingLeft=4;spacingRight=4;overflow=hidden;points=[[0,0.5],[1,0.5]];portConstraint=eastwest;rotatable=0;whiteSpace=wrap;html=1;" vertex="1" parent="Sc-RNGFK0KB6IZEStPiU-1">
          <mxGeometry y="120" width="140" height="30" as="geometry" />
        </mxCell>
        <mxCell id="Sc-RNGFK0KB6IZEStPiU-4" value="company_number" style="text;strokeColor=none;fillColor=none;align=left;verticalAlign=middle;spacingLeft=4;spacingRight=4;overflow=hidden;points=[[0,0.5],[1,0.5]];portConstraint=eastwest;rotatable=0;whiteSpace=wrap;html=1;" vertex="1" parent="Sc-RNGFK0KB6IZEStPiU-1">
          <mxGeometry y="150" width="140" height="30" as="geometry" />
        </mxCell>
        <mxCell id="Sc-RNGFK0KB6IZEStPiU-7" value="department" style="text;strokeColor=none;fillColor=none;align=left;verticalAlign=middle;spacingLeft=4;spacingRight=4;overflow=hidden;points=[[0,0.5],[1,0.5]];portConstraint=eastwest;rotatable=0;whiteSpace=wrap;html=1;" vertex="1" parent="Sc-RNGFK0KB6IZEStPiU-1">
          <mxGeometry y="180" width="140" height="30" as="geometry" />
        </mxCell>
        <mxCell id="Sc-RNGFK0KB6IZEStPiU-8" value="Role" style="swimlane;fontStyle=0;childLayout=stackLayout;horizontal=1;startSize=30;horizontalStack=0;resizeParent=1;resizeParentMax=0;resizeLast=0;collapsible=1;marginBottom=0;whiteSpace=wrap;html=1;" vertex="1" parent="1">
          <mxGeometry x="-100" y="130" width="140" height="90" as="geometry" />
        </mxCell>
        <mxCell id="Sc-RNGFK0KB6IZEStPiU-9" value="name" style="text;strokeColor=none;fillColor=none;align=left;verticalAlign=middle;spacingLeft=4;spacingRight=4;overflow=hidden;points=[[0,0.5],[1,0.5]];portConstraint=eastwest;rotatable=0;whiteSpace=wrap;html=1;" vertex="1" parent="Sc-RNGFK0KB6IZEStPiU-8">
          <mxGeometry y="30" width="140" height="30" as="geometry" />
        </mxCell>
        <mxCell id="Sc-RNGFK0KB6IZEStPiU-10" value="rules" style="text;strokeColor=none;fillColor=none;align=left;verticalAlign=middle;spacingLeft=4;spacingRight=4;overflow=hidden;points=[[0,0.5],[1,0.5]];portConstraint=eastwest;rotatable=0;whiteSpace=wrap;html=1;" vertex="1" parent="Sc-RNGFK0KB6IZEStPiU-8">
          <mxGeometry y="60" width="140" height="30" as="geometry" />
        </mxCell>
        <mxCell id="Sc-RNGFK0KB6IZEStPiU-12" value="Department" style="swimlane;fontStyle=0;childLayout=stackLayout;horizontal=1;startSize=30;horizontalStack=0;resizeParent=1;resizeParentMax=0;resizeLast=0;collapsible=1;marginBottom=0;whiteSpace=wrap;html=1;" vertex="1" parent="1">
          <mxGeometry x="640" y="220" width="140" height="90" as="geometry" />
        </mxCell>
        <mxCell id="Sc-RNGFK0KB6IZEStPiU-13" value="name" style="text;strokeColor=none;fillColor=none;align=left;verticalAlign=middle;spacingLeft=4;spacingRight=4;overflow=hidden;points=[[0,0.5],[1,0.5]];portConstraint=eastwest;rotatable=0;whiteSpace=wrap;html=1;" vertex="1" parent="Sc-RNGFK0KB6IZEStPiU-12">
          <mxGeometry y="30" width="140" height="30" as="geometry" />
        </mxCell>
        <mxCell id="Sc-RNGFK0KB6IZEStPiU-14" value="parent" style="text;strokeColor=none;fillColor=none;align=left;verticalAlign=middle;spacingLeft=4;spacingRight=4;overflow=hidden;points=[[0,0.5],[1,0.5]];portConstraint=eastwest;rotatable=0;whiteSpace=wrap;html=1;" vertex="1" parent="Sc-RNGFK0KB6IZEStPiU-12">
          <mxGeometry y="60" width="140" height="30" as="geometry" />
        </mxCell>
        <mxCell id="Sc-RNGFK0KB6IZEStPiU-16" value="Vacation" style="swimlane;fontStyle=0;childLayout=stackLayout;horizontal=1;startSize=30;horizontalStack=0;resizeParent=1;resizeParentMax=0;resizeLast=0;collapsible=1;marginBottom=0;whiteSpace=wrap;html=1;" vertex="1" parent="1">
          <mxGeometry x="-100" y="280" width="140" height="180" as="geometry" />
        </mxCell>
        <mxCell id="Sc-RNGFK0KB6IZEStPiU-17" value="user" style="text;strokeColor=none;fillColor=none;align=left;verticalAlign=middle;spacingLeft=4;spacingRight=4;overflow=hidden;points=[[0,0.5],[1,0.5]];portConstraint=eastwest;rotatable=0;whiteSpace=wrap;html=1;" vertex="1" parent="Sc-RNGFK0KB6IZEStPiU-16">
          <mxGeometry y="30" width="140" height="30" as="geometry" />
        </mxCell>
        <mxCell id="Sc-RNGFK0KB6IZEStPiU-18" value="start_date" style="text;strokeColor=none;fillColor=none;align=left;verticalAlign=middle;spacingLeft=4;spacingRight=4;overflow=hidden;points=[[0,0.5],[1,0.5]];portConstraint=eastwest;rotatable=0;whiteSpace=wrap;html=1;" vertex="1" parent="Sc-RNGFK0KB6IZEStPiU-16">
          <mxGeometry y="60" width="140" height="30" as="geometry" />
        </mxCell>
        <mxCell id="Sc-RNGFK0KB6IZEStPiU-19" value="end_date" style="text;strokeColor=none;fillColor=none;align=left;verticalAlign=middle;spacingLeft=4;spacingRight=4;overflow=hidden;points=[[0,0.5],[1,0.5]];portConstraint=eastwest;rotatable=0;whiteSpace=wrap;html=1;" vertex="1" parent="Sc-RNGFK0KB6IZEStPiU-16">
          <mxGeometry y="90" width="140" height="30" as="geometry" />
        </mxCell>
        <mxCell id="Sc-RNGFK0KB6IZEStPiU-20" value="deputy" style="text;strokeColor=none;fillColor=none;align=left;verticalAlign=middle;spacingLeft=4;spacingRight=4;overflow=hidden;points=[[0,0.5],[1,0.5]];portConstraint=eastwest;rotatable=0;whiteSpace=wrap;html=1;" vertex="1" parent="Sc-RNGFK0KB6IZEStPiU-16">
          <mxGeometry y="120" width="140" height="30" as="geometry" />
        </mxCell>
        <mxCell id="Sc-RNGFK0KB6IZEStPiU-21" value="status" style="text;strokeColor=none;fillColor=none;align=left;verticalAlign=middle;spacingLeft=4;spacingRight=4;overflow=hidden;points=[[0,0.5],[1,0.5]];portConstraint=eastwest;rotatable=0;whiteSpace=wrap;html=1;" vertex="1" parent="Sc-RNGFK0KB6IZEStPiU-16">
          <mxGeometry y="150" width="140" height="30" as="geometry" />
        </mxCell>
        <mxCell id="Sc-RNGFK0KB6IZEStPiU-22" value="CalendarDay" style="swimlane;fontStyle=0;childLayout=stackLayout;horizontal=1;startSize=30;horizontalStack=0;resizeParent=1;resizeParentMax=0;resizeLast=0;collapsible=1;marginBottom=0;whiteSpace=wrap;html=1;" vertex="1" parent="1">
          <mxGeometry x="-100" y="560" width="140" height="90" as="geometry" />
        </mxCell>
        <mxCell id="Sc-RNGFK0KB6IZEStPiU-23" value="date" style="text;strokeColor=none;fillColor=none;align=left;verticalAlign=middle;spacingLeft=4;spacingRight=4;overflow=hidden;points=[[0,0.5],[1,0.5]];portConstraint=eastwest;rotatable=0;whiteSpace=wrap;html=1;" vertex="1" parent="Sc-RNGFK0KB6IZEStPiU-22">
          <mxGeometry y="30" width="140" height="30" as="geometry" />
        </mxCell>
        <mxCell id="Sc-RNGFK0KB6IZEStPiU-24" value="isHoliday" style="text;strokeColor=none;fillColor=none;align=left;verticalAlign=middle;spacingLeft=4;spacingRight=4;overflow=hidden;points=[[0,0.5],[1,0.5]];portConstraint=eastwest;rotatable=0;whiteSpace=wrap;html=1;" vertex="1" parent="Sc-RNGFK0KB6IZEStPiU-22">
          <mxGeometry y="60" width="140" height="30" as="geometry" />
        </mxCell>
        <mxCell id="Sc-RNGFK0KB6IZEStPiU-30" value="" style="endArrow=none;html=1;rounded=0;exitX=1;exitY=0.5;exitDx=0;exitDy=0;entryX=0;entryY=0.5;entryDx=0;entryDy=0;" edge="1" parent="1" source="Sc-RNGFK0KB6IZEStPiU-31" target="Sc-RNGFK0KB6IZEStPiU-13">
          <mxGeometry width="50" height="50" relative="1" as="geometry">
            <mxPoint x="430" y="230" as="sourcePoint" />
            <mxPoint x="530" y="300" as="targetPoint" />
          </mxGeometry>
        </mxCell>
        <mxCell id="Sc-RNGFK0KB6IZEStPiU-32" value="" style="endArrow=none;html=1;rounded=0;exitX=1;exitY=0.5;exitDx=0;exitDy=0;entryX=0;entryY=0.5;entryDx=0;entryDy=0;" edge="1" parent="1" source="Sc-RNGFK0KB6IZEStPiU-6" target="Sc-RNGFK0KB6IZEStPiU-31">
          <mxGeometry width="50" height="50" relative="1" as="geometry">
            <mxPoint x="410" y="265" as="sourcePoint" />
            <mxPoint x="640" y="265" as="targetPoint" />
          </mxGeometry>
        </mxCell>
        <mxCell id="Sc-RNGFK0KB6IZEStPiU-31" value="Принадлежит" style="rhombus;whiteSpace=wrap;html=1;" vertex="1" parent="1">
          <mxGeometry x="470" y="237.5" width="120" height="55" as="geometry" />
        </mxCell>
        <mxCell id="Sc-RNGFK0KB6IZEStPiU-33" value="1" style="text;html=1;align=center;verticalAlign=middle;resizable=0;points=[];autosize=1;strokeColor=none;fillColor=none;" vertex="1" parent="1">
          <mxGeometry x="610" y="238" width="30" height="30" as="geometry" />
        </mxCell>
        <mxCell id="Sc-RNGFK0KB6IZEStPiU-34" value="М" style="text;html=1;align=center;verticalAlign=middle;resizable=0;points=[];autosize=1;strokeColor=none;fillColor=none;" vertex="1" parent="1">
          <mxGeometry x="410" y="238" width="30" height="30" as="geometry" />
        </mxCell>
        <mxCell id="Sc-RNGFK0KB6IZEStPiU-35" value="" style="endArrow=none;html=1;rounded=0;entryX=0;entryY=0.5;entryDx=0;entryDy=0;exitX=1;exitY=0.5;exitDx=0;exitDy=0;" edge="1" parent="1" source="Sc-RNGFK0KB6IZEStPiU-36" target="Sc-RNGFK0KB6IZEStPiU-2">
          <mxGeometry width="50" height="50" relative="1" as="geometry">
            <mxPoint x="10" y="370" as="sourcePoint" />
            <mxPoint x="60" y="320" as="targetPoint" />
          </mxGeometry>
        </mxCell>
        <mxCell id="Sc-RNGFK0KB6IZEStPiU-37" value="" style="endArrow=none;html=1;rounded=0;entryX=0;entryY=0.5;entryDx=0;entryDy=0;exitX=1;exitY=0.5;exitDx=0;exitDy=0;" edge="1" parent="1" source="Sc-RNGFK0KB6IZEStPiU-8" target="Sc-RNGFK0KB6IZEStPiU-36">
          <mxGeometry width="50" height="50" relative="1" as="geometry">
            <mxPoint x="80" y="175" as="sourcePoint" />
            <mxPoint x="260" y="175" as="targetPoint" />
          </mxGeometry>
        </mxCell>
        <mxCell id="Sc-RNGFK0KB6IZEStPiU-36" value="Имеет" style="rhombus;whiteSpace=wrap;html=1;" vertex="1" parent="1">
          <mxGeometry x="90" y="147.5" width="120" height="55" as="geometry" />
        </mxCell>
        <mxCell id="Sc-RNGFK0KB6IZEStPiU-39" value="1" style="text;html=1;align=center;verticalAlign=middle;resizable=0;points=[];autosize=1;strokeColor=none;fillColor=none;" vertex="1" parent="1">
          <mxGeometry x="230" y="150" width="30" height="30" as="geometry" />
        </mxCell>
        <mxCell id="Sc-RNGFK0KB6IZEStPiU-40" value="1" style="text;html=1;align=center;verticalAlign=middle;resizable=0;points=[];autosize=1;strokeColor=none;fillColor=none;" vertex="1" parent="1">
          <mxGeometry x="40" y="150" width="30" height="30" as="geometry" />
        </mxCell>
        <mxCell id="Sc-RNGFK0KB6IZEStPiU-41" value="" style="endArrow=none;html=1;rounded=0;entryX=0;entryY=0.5;entryDx=0;entryDy=0;exitX=1;exitY=0.5;exitDx=0;exitDy=0;" edge="1" parent="1" source="Sc-RNGFK0KB6IZEStPiU-42" target="Sc-RNGFK0KB6IZEStPiU-7">
          <mxGeometry width="50" height="50" relative="1" as="geometry">
            <mxPoint x="80" y="340" as="sourcePoint" />
            <mxPoint x="130" y="290" as="targetPoint" />
          </mxGeometry>
        </mxCell>
        <mxCell id="Sc-RNGFK0KB6IZEStPiU-43" value="" style="endArrow=none;html=1;rounded=0;entryX=0;entryY=0.5;entryDx=0;entryDy=0;exitX=1;exitY=0.5;exitDx=0;exitDy=0;" edge="1" parent="1" source="Sc-RNGFK0KB6IZEStPiU-17" target="Sc-RNGFK0KB6IZEStPiU-42">
          <mxGeometry width="50" height="50" relative="1" as="geometry">
            <mxPoint x="40" y="325" as="sourcePoint" />
            <mxPoint x="260" y="325" as="targetPoint" />
          </mxGeometry>
        </mxCell>
        <mxCell id="Sc-RNGFK0KB6IZEStPiU-42" value="Имеет" style="rhombus;whiteSpace=wrap;html=1;" vertex="1" parent="1">
          <mxGeometry x="90" y="297.5" width="120" height="55" as="geometry" />
        </mxCell>
        <mxCell id="Sc-RNGFK0KB6IZEStPiU-44" value="1" style="text;html=1;align=center;verticalAlign=middle;resizable=0;points=[];autosize=1;strokeColor=none;fillColor=none;" vertex="1" parent="1">
          <mxGeometry x="230" y="297.5" width="30" height="30" as="geometry" />
        </mxCell>
        <mxCell id="Sc-RNGFK0KB6IZEStPiU-45" value="М" style="text;html=1;align=center;verticalAlign=middle;resizable=0;points=[];autosize=1;strokeColor=none;fillColor=none;" vertex="1" parent="1">
          <mxGeometry x="40" y="297.5" width="30" height="30" as="geometry" />
        </mxCell>
        <mxCell id="Sc-RNGFK0KB6IZEStPiU-48" value="1" style="text;html=1;align=center;verticalAlign=middle;resizable=0;points=[];autosize=1;strokeColor=none;fillColor=none;" vertex="1" parent="1">
          <mxGeometry x="300" y="340" width="30" height="30" as="geometry" />
        </mxCell>
        <mxCell id="Sc-RNGFK0KB6IZEStPiU-49" value="М" style="text;html=1;align=center;verticalAlign=middle;resizable=0;points=[];autosize=1;strokeColor=none;fillColor=none;" vertex="1" parent="1">
          <mxGeometry x="300" y="515" width="30" height="30" as="geometry" />
        </mxCell>
        <mxCell id="Sc-RNGFK0KB6IZEStPiU-50" value="" style="endArrow=none;html=1;rounded=0;exitX=0.5;exitY=0;exitDx=0;exitDy=0;" edge="1" parent="1" source="Sc-RNGFK0KB6IZEStPiU-51" target="Sc-RNGFK0KB6IZEStPiU-21">
          <mxGeometry width="50" height="50" relative="1" as="geometry">
            <mxPoint x="-60" y="560" as="sourcePoint" />
            <mxPoint x="-10" y="510" as="targetPoint" />
          </mxGeometry>
        </mxCell>
        <mxCell id="Sc-RNGFK0KB6IZEStPiU-52" value="" style="endArrow=none;html=1;rounded=0;exitX=0.5;exitY=0;exitDx=0;exitDy=0;" edge="1" parent="1" source="Sc-RNGFK0KB6IZEStPiU-22" target="Sc-RNGFK0KB6IZEStPiU-51">
          <mxGeometry width="50" height="50" relative="1" as="geometry">
            <mxPoint x="-30" y="560" as="sourcePoint" />
            <mxPoint x="-30" y="460" as="targetPoint" />
          </mxGeometry>
        </mxCell>
        <mxCell id="Sc-RNGFK0KB6IZEStPiU-51" value="Содержит" style="rhombus;whiteSpace=wrap;html=1;" vertex="1" parent="1">
          <mxGeometry x="-90" y="487.5" width="120" height="55" as="geometry" />
        </mxCell>
        <mxCell id="Sc-RNGFK0KB6IZEStPiU-53" value="М" style="text;html=1;align=center;verticalAlign=middle;resizable=0;points=[];autosize=1;strokeColor=none;fillColor=none;" vertex="1" parent="1">
          <mxGeometry x="-60" y="530" width="30" height="30" as="geometry" />
        </mxCell>
        <mxCell id="Sc-RNGFK0KB6IZEStPiU-54" value="1" style="text;html=1;align=center;verticalAlign=middle;resizable=0;points=[];autosize=1;strokeColor=none;fillColor=none;" vertex="1" parent="1">
          <mxGeometry x="-60" y="457.5" width="30" height="30" as="geometry" />
        </mxCell>
        <mxCell id="Sc-RNGFK0KB6IZEStPiU-55" value="" style="endArrow=none;html=1;rounded=0;exitX=0.5;exitY=0;exitDx=0;exitDy=0;" edge="1" parent="1" source="Sc-RNGFK0KB6IZEStPiU-26" target="Sc-RNGFK0KB6IZEStPiU-47">
          <mxGeometry width="50" height="50" relative="1" as="geometry">
            <mxPoint x="330" y="543" as="sourcePoint" />
            <mxPoint x="330" y="340" as="targetPoint" />
          </mxGeometry>
        </mxCell>
        <mxCell id="Sc-RNGFK0KB6IZEStPiU-47" value="Создает" style="rhombus;whiteSpace=wrap;html=1;" vertex="1" parent="1">
          <mxGeometry x="270" y="417.5" width="120" height="55" as="geometry" />
        </mxCell>
        <mxCell id="Sc-RNGFK0KB6IZEStPiU-56" value="" style="endArrow=none;html=1;rounded=0;entryX=0;entryY=0.5;entryDx=0;entryDy=0;exitX=1;exitY=0.5;exitDx=0;exitDy=0;" edge="1" parent="1" source="Sc-RNGFK0KB6IZEStPiU-57" target="Sc-RNGFK0KB6IZEStPiU-26">
          <mxGeometry width="50" height="50" relative="1" as="geometry">
            <mxPoint x="120" y="540" as="sourcePoint" />
            <mxPoint x="170" y="490" as="targetPoint" />
          </mxGeometry>
        </mxCell>
        <mxCell id="Sc-RNGFK0KB6IZEStPiU-58" value="" style="endArrow=none;html=1;rounded=0;entryX=0;entryY=0.5;entryDx=0;entryDy=0;exitX=1;exitY=0.5;exitDx=0;exitDy=0;" edge="1" parent="1" source="Sc-RNGFK0KB6IZEStPiU-23" target="Sc-RNGFK0KB6IZEStPiU-57">
          <mxGeometry width="50" height="50" relative="1" as="geometry">
            <mxPoint x="40" y="605" as="sourcePoint" />
            <mxPoint x="260" y="603" as="targetPoint" />
          </mxGeometry>
        </mxCell>
        <mxCell id="Sc-RNGFK0KB6IZEStPiU-57" value="Содержит" style="rhombus;whiteSpace=wrap;html=1;" vertex="1" parent="1">
          <mxGeometry x="90" y="577.5" width="120" height="55" as="geometry" />
        </mxCell>
        <mxCell id="Sc-RNGFK0KB6IZEStPiU-59" value="1" style="text;html=1;align=center;verticalAlign=middle;resizable=0;points=[];autosize=1;strokeColor=none;fillColor=none;" vertex="1" parent="1">
          <mxGeometry x="40" y="577.5" width="30" height="30" as="geometry" />
        </mxCell>
        <mxCell id="Sc-RNGFK0KB6IZEStPiU-60" value="1" style="text;html=1;align=center;verticalAlign=middle;resizable=0;points=[];autosize=1;strokeColor=none;fillColor=none;" vertex="1" parent="1">
          <mxGeometry x="230" y="577.5" width="30" height="30" as="geometry" />
        </mxCell>
      </root>
    </mxGraphModel>
  </diagram>
</mxfile>
